<svg id="Capa_1" enable-background="new 0 0 512 512" height="512" viewBox="0 0 512 512" width="512" xmlns="http://www.w3.org/2000/svg"><g><path d="m341.463 351.727c-.642.023-1.275.01-1.916.01-47.947-.002-93.145-18.443-127.448-52.05-34.76-34.057-54.676-79.609-54.676-128.272-.001-90.398 63.757-171.415 63.757-171.415-133.879 28.074-221.18 131.135-221.18 260.09 0 67.983 27.823 131.619 76.384 179.196 47.923 46.953 111.058 72.714 178.045 72.714.89 0 1.785-.004 2.676-.014 60.319-.617 118.594-22.698 164.094-62.175 44.971-39.02 82.392-106.299 90.801-189.921 0 0-56.737 87.748-170.537 91.837zm59.969 75.303c-40.099 34.792-91.465 54.253-144.635 54.798-.79.008-1.571.012-2.359.012-59.044 0-114.704-22.711-156.946-64.097-42.806-41.939-66.719-98.037-67.333-157.961-.927-90.599 54.504-177.951 134.144-213.831-22.964 34.936-37.476 83.191-37.04 125.773.58 56.717 23.213 109.813 63.728 149.508 40.516 39.695 94.099 61.258 150.78 60.655 43.508-.445 85.262-14.166 120.103-38.725-13.252 31.999-33.887 60.828-60.442 83.868z"/><path d="m329.77 214.967 69.659-34.454 69.886 33.995-11.243-76.898 53.928-55.959-76.609-13.071-36.556-68.58-36.105 68.819-76.519 13.575 54.293 55.604zm52.688-119.183 16.588-31.62 16.797 31.51 35.198 6.006-24.777 25.711 5.166 35.331-32.109-15.619-32.007 15.83 4.932-35.364-24.946-25.548z"/></g></svg>